<mxfile host="app.diagrams.net" agent="Mozilla/5.0 (Windows NT 10.0; Win64; x64) AppleWebKit/537.36 (KHTML, like Gecko) Chrome/135.0.0.0 Safari/537.36" version="26.2.14">
  <diagram name="Page-1" id="h33jjdInylf1GJhCUGJG">
    <mxGraphModel dx="1489" dy="1903" grid="1" gridSize="10" guides="1" tooltips="1" connect="1" arrows="1" fold="1" page="1" pageScale="1" pageWidth="850" pageHeight="1100" math="0" shadow="0">
      <root>
        <mxCell id="0" />
        <mxCell id="1" parent="0" />
        <mxCell id="HXSTVyQuS4wlSjk6VZ7_-23" style="edgeStyle=orthogonalEdgeStyle;rounded=0;orthogonalLoop=1;jettySize=auto;html=1;exitX=0.5;exitY=1;exitDx=0;exitDy=0;jumpStyle=arc;" edge="1" parent="1" source="HXSTVyQuS4wlSjk6VZ7_-5">
          <mxGeometry relative="1" as="geometry">
            <mxPoint x="60" y="380" as="sourcePoint" />
            <mxPoint x="425.05882352941194" y="260" as="targetPoint" />
            <Array as="points">
              <mxPoint x="60" y="380" />
              <mxPoint x="425" y="380" />
            </Array>
          </mxGeometry>
        </mxCell>
        <mxCell id="HXSTVyQuS4wlSjk6VZ7_-1" value="&lt;span style=&quot;--tw-border-spacing-x: 0; --tw-border-spacing-y: 0; --tw-translate-x: 0; --tw-translate-y: 0; --tw-rotate: 0; --tw-skew-x: 0; --tw-skew-y: 0; --tw-scale-x: 1; --tw-scale-y: 1; --tw-pan-x: ; --tw-pan-y: ; --tw-pinch-zoom: ; --tw-scroll-snap-strictness: proximity; --tw-gradient-from-position: ; --tw-gradient-via-position: ; --tw-gradient-to-position: ; --tw-ordinal: ; --tw-slashed-zero: ; --tw-numeric-figure: ; --tw-numeric-spacing: ; --tw-numeric-fraction: ; --tw-ring-inset: ; --tw-ring-offset-width: 0px; --tw-ring-offset-color: #fff; --tw-ring-color: rgb(59 130 246 / 0.5); --tw-ring-offset-shadow: 0 0 #0000; --tw-ring-shadow: 0 0 #0000; --tw-shadow: 0 0 #0000; --tw-shadow-colored: 0 0 #0000; --tw-blur: ; --tw-brightness: ; --tw-contrast: ; --tw-grayscale: ; --tw-hue-rotate: ; --tw-invert: ; --tw-saturate: ; --tw-sepia: ; --tw-drop-shadow: ; --tw-backdrop-blur: ; --tw-backdrop-brightness: ; --tw-backdrop-contrast: ; --tw-backdrop-grayscale: ; --tw-backdrop-hue-rotate: ; --tw-backdrop-invert: ; --tw-backdrop-opacity: ; --tw-backdrop-saturate: ; --tw-backdrop-sepia: ; --tw-contain-size: ; --tw-contain-layout: ; --tw-contain-paint: ; --tw-contain-style: ; box-sizing: border-box; border-width: 0px; border-style: solid; border-color: rgb(229, 231, 235); font-weight: bolder; font-family: ui-sans-serif, system-ui, sans-serif, &amp;quot;Apple Color Emoji&amp;quot;, &amp;quot;Segoe UI Emoji&amp;quot;, &amp;quot;Segoe UI Symbol&amp;quot;, &amp;quot;Noto Color Emoji&amp;quot;; font-size: medium;&quot;&gt;Start: Dealer initiates inquiry&lt;/span&gt;&lt;br style=&quot;--tw-border-spacing-x: 0; --tw-border-spacing-y: 0; --tw-translate-x: 0; --tw-translate-y: 0; --tw-rotate: 0; --tw-skew-x: 0; --tw-skew-y: 0; --tw-scale-x: 1; --tw-scale-y: 1; --tw-pan-x: ; --tw-pan-y: ; --tw-pinch-zoom: ; --tw-scroll-snap-strictness: proximity; --tw-gradient-from-position: ; --tw-gradient-via-position: ; --tw-gradient-to-position: ; --tw-ordinal: ; --tw-slashed-zero: ; --tw-numeric-figure: ; --tw-numeric-spacing: ; --tw-numeric-fraction: ; --tw-ring-inset: ; --tw-ring-offset-width: 0px; --tw-ring-offset-color: #fff; --tw-ring-color: rgb(59 130 246 / 0.5); --tw-ring-offset-shadow: 0 0 #0000; --tw-ring-shadow: 0 0 #0000; --tw-shadow: 0 0 #0000; --tw-shadow-colored: 0 0 #0000; --tw-blur: ; --tw-brightness: ; --tw-contrast: ; --tw-grayscale: ; --tw-hue-rotate: ; --tw-invert: ; --tw-saturate: ; --tw-sepia: ; --tw-drop-shadow: ; --tw-backdrop-blur: ; --tw-backdrop-brightness: ; --tw-backdrop-contrast: ; --tw-backdrop-grayscale: ; --tw-backdrop-hue-rotate: ; --tw-backdrop-invert: ; --tw-backdrop-opacity: ; --tw-backdrop-saturate: ; --tw-backdrop-sepia: ; --tw-contain-size: ; --tw-contain-layout: ; --tw-contain-paint: ; --tw-contain-style: ; box-sizing: border-box; border-width: 0px; border-style: solid; border-color: rgb(229, 231, 235); font-family: ui-sans-serif, system-ui, sans-serif, &amp;quot;Apple Color Emoji&amp;quot;, &amp;quot;Segoe UI Emoji&amp;quot;, &amp;quot;Segoe UI Symbol&amp;quot;, &amp;quot;Noto Color Emoji&amp;quot;; font-size: medium;&quot;&gt;&lt;span style=&quot;font-family: ui-sans-serif, system-ui, sans-serif, &amp;quot;Apple Color Emoji&amp;quot;, &amp;quot;Segoe UI Emoji&amp;quot;, &amp;quot;Segoe UI Symbol&amp;quot;, &amp;quot;Noto Color Emoji&amp;quot;; font-size: medium; background-color: rgb(187, 247, 208);&quot;&gt;(WhatsApp or Phone Call)&lt;/span&gt;" style="ellipse;whiteSpace=wrap;html=1;" vertex="1" parent="1">
          <mxGeometry x="10" y="10" width="220" height="120" as="geometry" />
        </mxCell>
        <mxCell id="HXSTVyQuS4wlSjk6VZ7_-3" value="" style="endArrow=classic;html=1;rounded=0;exitX=0.5;exitY=1;exitDx=0;exitDy=0;" edge="1" parent="1" source="HXSTVyQuS4wlSjk6VZ7_-1">
          <mxGeometry width="50" height="50" relative="1" as="geometry">
            <mxPoint x="400" y="290" as="sourcePoint" />
            <mxPoint x="120" y="180" as="targetPoint" />
          </mxGeometry>
        </mxCell>
        <mxCell id="HXSTVyQuS4wlSjk6VZ7_-4" value="Check Media Type" style="rhombus;whiteSpace=wrap;html=1;" vertex="1" parent="1">
          <mxGeometry x="30" y="180" width="180" height="80" as="geometry" />
        </mxCell>
        <mxCell id="HXSTVyQuS4wlSjk6VZ7_-5" value="Whatsapp Sound Recording" style="rounded=0;whiteSpace=wrap;html=1;" vertex="1" parent="1">
          <mxGeometry y="290" width="120" height="60" as="geometry" />
        </mxCell>
        <mxCell id="HXSTVyQuS4wlSjk6VZ7_-6" value="" style="endArrow=classic;html=1;rounded=0;exitX=0;exitY=0.5;exitDx=0;exitDy=0;entryX=0.25;entryY=0;entryDx=0;entryDy=0;" edge="1" parent="1" source="HXSTVyQuS4wlSjk6VZ7_-4" target="HXSTVyQuS4wlSjk6VZ7_-5">
          <mxGeometry width="50" height="50" relative="1" as="geometry">
            <mxPoint x="400" y="250" as="sourcePoint" />
            <mxPoint x="450" y="200" as="targetPoint" />
          </mxGeometry>
        </mxCell>
        <mxCell id="HXSTVyQuS4wlSjk6VZ7_-7" value="Whatsapp Text" style="rounded=0;whiteSpace=wrap;html=1;" vertex="1" parent="1">
          <mxGeometry x="150" y="290" width="120" height="60" as="geometry" />
        </mxCell>
        <mxCell id="HXSTVyQuS4wlSjk6VZ7_-8" value="" style="endArrow=classic;html=1;rounded=0;exitX=0;exitY=0.5;exitDx=0;exitDy=0;entryX=0;entryY=0.5;entryDx=0;entryDy=0;" edge="1" parent="1" target="HXSTVyQuS4wlSjk6VZ7_-7">
          <mxGeometry width="50" height="50" relative="1" as="geometry">
            <mxPoint x="119" y="260" as="sourcePoint" />
            <mxPoint x="119" y="330" as="targetPoint" />
          </mxGeometry>
        </mxCell>
        <mxCell id="HXSTVyQuS4wlSjk6VZ7_-9" value="Voice Call" style="rounded=0;whiteSpace=wrap;html=1;" vertex="1" parent="1">
          <mxGeometry x="230" y="190" width="120" height="60" as="geometry" />
        </mxCell>
        <mxCell id="HXSTVyQuS4wlSjk6VZ7_-10" value="" style="endArrow=classic;html=1;rounded=0;exitX=1;exitY=0.5;exitDx=0;exitDy=0;entryX=0;entryY=0.5;entryDx=0;entryDy=0;" edge="1" parent="1" source="HXSTVyQuS4wlSjk6VZ7_-4" target="HXSTVyQuS4wlSjk6VZ7_-9">
          <mxGeometry width="50" height="50" relative="1" as="geometry">
            <mxPoint x="129" y="270" as="sourcePoint" />
            <mxPoint x="160" y="330" as="targetPoint" />
          </mxGeometry>
        </mxCell>
        <mxCell id="HXSTVyQuS4wlSjk6VZ7_-15" style="edgeStyle=orthogonalEdgeStyle;rounded=0;orthogonalLoop=1;jettySize=auto;html=1;exitX=1;exitY=0.5;exitDx=0;exitDy=0;entryX=0.5;entryY=0.5;entryDx=0;entryDy=0;entryPerimeter=0;" edge="1" parent="1" source="HXSTVyQuS4wlSjk6VZ7_-9" target="HXSTVyQuS4wlSjk6VZ7_-11">
          <mxGeometry relative="1" as="geometry" />
        </mxCell>
        <mxCell id="HXSTVyQuS4wlSjk6VZ7_-25" style="edgeStyle=orthogonalEdgeStyle;rounded=0;orthogonalLoop=1;jettySize=auto;html=1;exitX=0.5;exitY=0.5;exitDx=0;exitDy=0;exitPerimeter=0;entryX=0;entryY=0.3333333333333333;entryDx=0;entryDy=0;entryPerimeter=0;" edge="1" parent="1" source="HXSTVyQuS4wlSjk6VZ7_-11" target="HXSTVyQuS4wlSjk6VZ7_-39">
          <mxGeometry relative="1" as="geometry" />
        </mxCell>
        <mxCell id="HXSTVyQuS4wlSjk6VZ7_-11" value="Voice&amp;nbsp; Transfer Agent" style="shape=umlActor;verticalLabelPosition=bottom;verticalAlign=top;html=1;outlineConnect=0;" vertex="1" parent="1">
          <mxGeometry x="410" y="170" width="30" height="60" as="geometry" />
        </mxCell>
        <mxCell id="HXSTVyQuS4wlSjk6VZ7_-22" style="edgeStyle=orthogonalEdgeStyle;rounded=0;orthogonalLoop=1;jettySize=auto;html=1;exitX=1;exitY=0.5;exitDx=0;exitDy=0;entryX=0.5;entryY=0.5;entryDx=0;entryDy=0;entryPerimeter=0;" edge="1" parent="1" source="HXSTVyQuS4wlSjk6VZ7_-7" target="HXSTVyQuS4wlSjk6VZ7_-17">
          <mxGeometry relative="1" as="geometry" />
        </mxCell>
        <mxCell id="HXSTVyQuS4wlSjk6VZ7_-27" style="edgeStyle=orthogonalEdgeStyle;rounded=0;orthogonalLoop=1;jettySize=auto;html=1;exitX=0.5;exitY=0.5;exitDx=0;exitDy=0;exitPerimeter=0;jumpStyle=arc;" edge="1" parent="1" source="HXSTVyQuS4wlSjk6VZ7_-17">
          <mxGeometry relative="1" as="geometry">
            <mxPoint x="570" y="150" as="targetPoint" />
          </mxGeometry>
        </mxCell>
        <mxCell id="HXSTVyQuS4wlSjk6VZ7_-17" value="Text Transfer Agent" style="shape=umlActor;verticalLabelPosition=bottom;verticalAlign=top;html=1;outlineConnect=0;" vertex="1" parent="1">
          <mxGeometry x="330" y="290" width="30" height="60" as="geometry" />
        </mxCell>
        <mxCell id="HXSTVyQuS4wlSjk6VZ7_-31" style="edgeStyle=orthogonalEdgeStyle;rounded=0;orthogonalLoop=1;jettySize=auto;html=1;exitX=1;exitY=0.5;exitDx=0;exitDy=0;entryX=1;entryY=0.5;entryDx=0;entryDy=0;" edge="1" parent="1" source="HXSTVyQuS4wlSjk6VZ7_-28" target="HXSTVyQuS4wlSjk6VZ7_-1">
          <mxGeometry relative="1" as="geometry" />
        </mxCell>
        <mxCell id="HXSTVyQuS4wlSjk6VZ7_-28" value="Data is Coorect and consist of&amp;nbsp;&lt;span style=&quot;font-family: ui-sans-serif, system-ui, sans-serif, &amp;quot;Apple Color Emoji&amp;quot;, &amp;quot;Segoe UI Emoji&amp;quot;, &amp;quot;Segoe UI Symbol&amp;quot;, &amp;quot;Noto Color Emoji&amp;quot;; font-size: medium; text-align: start; background-color: rgb(255, 255, 255);&quot;&gt;color, quality, material&lt;/span&gt;&amp;nbsp;" style="rhombus;whiteSpace=wrap;html=1;" vertex="1" parent="1">
          <mxGeometry x="560" y="330" width="320" height="180" as="geometry" />
        </mxCell>
        <mxCell id="HXSTVyQuS4wlSjk6VZ7_-33" value="&lt;font style=&quot;font-size: 20px;&quot;&gt;Data is not correct please enter proper details&lt;/font&gt;" style="text;html=1;align=center;verticalAlign=middle;whiteSpace=wrap;rounded=0;" vertex="1" parent="1">
          <mxGeometry x="310" y="40" width="465" height="30" as="geometry" />
        </mxCell>
        <mxCell id="HXSTVyQuS4wlSjk6VZ7_-46" style="edgeStyle=orthogonalEdgeStyle;rounded=0;orthogonalLoop=1;jettySize=auto;html=1;exitX=0;exitY=0.3333333333333333;exitDx=0;exitDy=0;exitPerimeter=0;entryX=1;entryY=0.5;entryDx=0;entryDy=0;" edge="1" parent="1" source="HXSTVyQuS4wlSjk6VZ7_-35" target="HXSTVyQuS4wlSjk6VZ7_-45">
          <mxGeometry relative="1" as="geometry" />
        </mxCell>
        <mxCell id="HXSTVyQuS4wlSjk6VZ7_-35" value="Converter Reviewer" style="shape=umlActor;verticalLabelPosition=bottom;verticalAlign=top;html=1;outlineConnect=0;" vertex="1" parent="1">
          <mxGeometry x="470" y="450" width="30" height="60" as="geometry" />
        </mxCell>
        <mxCell id="HXSTVyQuS4wlSjk6VZ7_-36" style="edgeStyle=orthogonalEdgeStyle;rounded=0;orthogonalLoop=1;jettySize=auto;html=1;exitX=0;exitY=0.5;exitDx=0;exitDy=0;entryX=0.5;entryY=0;entryDx=0;entryDy=0;entryPerimeter=0;" edge="1" parent="1" source="HXSTVyQuS4wlSjk6VZ7_-28" target="HXSTVyQuS4wlSjk6VZ7_-35">
          <mxGeometry relative="1" as="geometry" />
        </mxCell>
        <mxCell id="HXSTVyQuS4wlSjk6VZ7_-43" style="edgeStyle=orthogonalEdgeStyle;rounded=0;orthogonalLoop=1;jettySize=auto;html=1;exitX=1;exitY=1;exitDx=0;exitDy=0;exitPerimeter=0;" edge="1" parent="1" source="HXSTVyQuS4wlSjk6VZ7_-39" target="HXSTVyQuS4wlSjk6VZ7_-28">
          <mxGeometry relative="1" as="geometry">
            <Array as="points">
              <mxPoint x="720" y="190" />
            </Array>
          </mxGeometry>
        </mxCell>
        <mxCell id="HXSTVyQuS4wlSjk6VZ7_-39" value="Convertor Agent" style="shape=umlActor;verticalLabelPosition=bottom;verticalAlign=top;html=1;outlineConnect=0;" vertex="1" parent="1">
          <mxGeometry x="660" y="130" width="30" height="60" as="geometry" />
        </mxCell>
        <mxCell id="HXSTVyQuS4wlSjk6VZ7_-44" value="&lt;span style=&quot;font-family: ui-sans-serif, system-ui, sans-serif, &amp;quot;Apple Color Emoji&amp;quot;, &amp;quot;Segoe UI Emoji&amp;quot;, &amp;quot;Segoe UI Symbol&amp;quot;, &amp;quot;Noto Color Emoji&amp;quot;; font-size: medium; text-align: start; background-color: rgb(255, 255, 255);&quot;&gt;Convert to English&lt;br&gt;&lt;/span&gt;&lt;span style=&quot;font-family: ui-sans-serif, system-ui, sans-serif, &amp;quot;Apple Color Emoji&amp;quot;, &amp;quot;Segoe UI Emoji&amp;quot;, &amp;quot;Segoe UI Symbol&amp;quot;, &amp;quot;Noto Color Emoji&amp;quot;; font-size: medium; text-align: start; background-color: rgb(255, 255, 255);&quot;&gt;Extract: color, quality, material&lt;/span&gt;" style="text;html=1;align=center;verticalAlign=middle;whiteSpace=wrap;rounded=0;" vertex="1" parent="1">
          <mxGeometry x="500" y="90" width="320" height="30" as="geometry" />
        </mxCell>
        <mxCell id="HXSTVyQuS4wlSjk6VZ7_-49" style="edgeStyle=orthogonalEdgeStyle;rounded=0;orthogonalLoop=1;jettySize=auto;html=1;exitX=0.5;exitY=1;exitDx=0;exitDy=0;" edge="1" parent="1" source="HXSTVyQuS4wlSjk6VZ7_-45">
          <mxGeometry relative="1" as="geometry">
            <mxPoint x="359.8823529411766" y="610" as="targetPoint" />
          </mxGeometry>
        </mxCell>
        <mxCell id="HXSTVyQuS4wlSjk6VZ7_-66" style="edgeStyle=orthogonalEdgeStyle;rounded=0;orthogonalLoop=1;jettySize=auto;html=1;curved=1;exitX=0.5;exitY=0;exitDx=0;exitDy=0;" edge="1" parent="1" source="HXSTVyQuS4wlSjk6VZ7_-45">
          <mxGeometry relative="1" as="geometry">
            <mxPoint x="600" y="150" as="targetPoint" />
            <Array as="points">
              <mxPoint x="430" y="430" />
              <mxPoint x="430" y="360" />
              <mxPoint x="590" y="360" />
              <mxPoint x="590" y="150" />
            </Array>
          </mxGeometry>
        </mxCell>
        <mxCell id="HXSTVyQuS4wlSjk6VZ7_-45" value="Data is Valid?" style="rhombus;whiteSpace=wrap;html=1;" vertex="1" parent="1">
          <mxGeometry x="290" y="430" width="140" height="80" as="geometry" />
        </mxCell>
        <mxCell id="HXSTVyQuS4wlSjk6VZ7_-48" value="&lt;b&gt;&lt;font style=&quot;font-size: 17px;&quot;&gt;NO&lt;/font&gt;&lt;/b&gt;" style="text;html=1;align=center;verticalAlign=middle;whiteSpace=wrap;rounded=0;" vertex="1" parent="1">
          <mxGeometry x="840" y="350" width="60" height="30" as="geometry" />
        </mxCell>
        <mxCell id="HXSTVyQuS4wlSjk6VZ7_-50" value="&lt;b&gt;&lt;font style=&quot;font-size: 17px;&quot;&gt;Yes&lt;/font&gt;&lt;/b&gt;" style="text;html=1;align=center;verticalAlign=middle;whiteSpace=wrap;rounded=0;" vertex="1" parent="1">
          <mxGeometry x="300" y="535" width="60" height="30" as="geometry" />
        </mxCell>
        <mxCell id="HXSTVyQuS4wlSjk6VZ7_-52" style="edgeStyle=orthogonalEdgeStyle;rounded=0;orthogonalLoop=1;jettySize=auto;html=1;exitX=1;exitY=0.3333333333333333;exitDx=0;exitDy=0;exitPerimeter=0;" edge="1" parent="1" source="HXSTVyQuS4wlSjk6VZ7_-51" target="HXSTVyQuS4wlSjk6VZ7_-53">
          <mxGeometry relative="1" as="geometry">
            <mxPoint x="480" y="640.3333333333335" as="targetPoint" />
          </mxGeometry>
        </mxCell>
        <mxCell id="HXSTVyQuS4wlSjk6VZ7_-51" value="&lt;span style=&quot;--tw-border-spacing-x: 0; --tw-border-spacing-y: 0; --tw-translate-x: 0; --tw-translate-y: 0; --tw-rotate: 0; --tw-skew-x: 0; --tw-skew-y: 0; --tw-scale-x: 1; --tw-scale-y: 1; --tw-pan-x: ; --tw-pan-y: ; --tw-pinch-zoom: ; --tw-scroll-snap-strictness: proximity; --tw-gradient-from-position: ; --tw-gradient-via-position: ; --tw-gradient-to-position: ; --tw-ordinal: ; --tw-slashed-zero: ; --tw-numeric-figure: ; --tw-numeric-spacing: ; --tw-numeric-fraction: ; --tw-ring-inset: ; --tw-ring-offset-width: 0px; --tw-ring-offset-color: #fff; --tw-ring-color: rgb(59 130 246 / 0.5); --tw-ring-offset-shadow: 0 0 #0000; --tw-ring-shadow: 0 0 #0000; --tw-shadow: 0 0 #0000; --tw-shadow-colored: 0 0 #0000; --tw-blur: ; --tw-brightness: ; --tw-contrast: ; --tw-grayscale: ; --tw-hue-rotate: ; --tw-invert: ; --tw-saturate: ; --tw-sepia: ; --tw-drop-shadow: ; --tw-backdrop-blur: ; --tw-backdrop-brightness: ; --tw-backdrop-contrast: ; --tw-backdrop-grayscale: ; --tw-backdrop-hue-rotate: ; --tw-backdrop-invert: ; --tw-backdrop-opacity: ; --tw-backdrop-saturate: ; --tw-backdrop-sepia: ; --tw-contain-size: ; --tw-contain-layout: ; --tw-contain-paint: ; --tw-contain-style: ; box-sizing: border-box; border-width: 0px; border-style: solid; border-color: rgb(229, 231, 235); font-weight: bolder; font-family: ui-sans-serif, system-ui, sans-serif, &amp;quot;Apple Color Emoji&amp;quot;, &amp;quot;Segoe UI Emoji&amp;quot;, &amp;quot;Segoe UI Symbol&amp;quot;, &amp;quot;Noto Color Emoji&amp;quot;; font-size: medium; text-align: start; text-wrap-mode: wrap;&quot;&gt;RateAgent&amp;nbsp;&lt;/span&gt;" style="shape=umlActor;verticalLabelPosition=bottom;verticalAlign=top;html=1;outlineConnect=0;" vertex="1" parent="1">
          <mxGeometry x="345" y="620" width="30" height="60" as="geometry" />
        </mxCell>
        <mxCell id="HXSTVyQuS4wlSjk6VZ7_-54" style="edgeStyle=orthogonalEdgeStyle;rounded=0;orthogonalLoop=1;jettySize=auto;html=1;exitX=1;exitY=0.5;exitDx=0;exitDy=0;" edge="1" parent="1" source="HXSTVyQuS4wlSjk6VZ7_-53">
          <mxGeometry relative="1" as="geometry">
            <mxPoint x="750" y="639.6153846153845" as="targetPoint" />
          </mxGeometry>
        </mxCell>
        <mxCell id="HXSTVyQuS4wlSjk6VZ7_-53" value="Fetch from database" style="rounded=0;whiteSpace=wrap;html=1;" vertex="1" parent="1">
          <mxGeometry x="420" y="610.3333333333335" width="120" height="60" as="geometry" />
        </mxCell>
        <mxCell id="HXSTVyQuS4wlSjk6VZ7_-56" value="&lt;b&gt;&lt;font style=&quot;font-size: 19px;&quot;&gt;Data Found Or Not Found&lt;/font&gt;&lt;/b&gt;" style="text;html=1;align=center;verticalAlign=middle;whiteSpace=wrap;rounded=0;" vertex="1" parent="1">
          <mxGeometry x="540" y="600" width="190" height="30" as="geometry" />
        </mxCell>
        <mxCell id="HXSTVyQuS4wlSjk6VZ7_-61" style="edgeStyle=orthogonalEdgeStyle;rounded=0;orthogonalLoop=1;jettySize=auto;html=1;exitX=0.5;exitY=0.5;exitDx=0;exitDy=0;exitPerimeter=0;entryX=1;entryY=0;entryDx=0;entryDy=0;" edge="1" parent="1" source="HXSTVyQuS4wlSjk6VZ7_-57" target="HXSTVyQuS4wlSjk6VZ7_-1">
          <mxGeometry relative="1" as="geometry">
            <Array as="points">
              <mxPoint x="1040" y="640" />
              <mxPoint x="1040" y="28" />
            </Array>
          </mxGeometry>
        </mxCell>
        <mxCell id="HXSTVyQuS4wlSjk6VZ7_-57" value="&lt;b&gt;&lt;font style=&quot;font-size: 17px;&quot;&gt;Recipient Agent&lt;/font&gt;&lt;/b&gt;" style="shape=umlActor;verticalLabelPosition=bottom;verticalAlign=top;html=1;outlineConnect=0;" vertex="1" parent="1">
          <mxGeometry x="750" y="610.33" width="30" height="60" as="geometry" />
        </mxCell>
        <mxCell id="HXSTVyQuS4wlSjk6VZ7_-62" value="&lt;b&gt;&lt;font style=&quot;font-size: 20px;&quot;&gt;Check channel and based on asked data return in output&lt;/font&gt;&lt;/b&gt;" style="text;html=1;align=center;verticalAlign=middle;whiteSpace=wrap;rounded=0;rotation=-90;" vertex="1" parent="1">
          <mxGeometry x="660" y="310" width="720" height="30" as="geometry" />
        </mxCell>
        <mxCell id="HXSTVyQuS4wlSjk6VZ7_-70" value="&lt;b&gt;&lt;font style=&quot;font-size: 17px;&quot;&gt;Yes&lt;/font&gt;&lt;/b&gt;" style="text;html=1;align=center;verticalAlign=middle;whiteSpace=wrap;rounded=0;" vertex="1" parent="1">
          <mxGeometry x="490" y="390" width="60" height="30" as="geometry" />
        </mxCell>
      </root>
    </mxGraphModel>
  </diagram>
</mxfile>
